<svg width="38" height="34" viewBox="0 0 38 34" fill="none" xmlns="http://www.w3.org/2000/svg">
<path d="M18.9999 3.42417C17.0023 1.58736 14.3876 0.567926 11.6739 0.567841C10.2375 0.569336 8.81567 0.854866 7.4901 1.408C6.16453 1.96113 4.96144 2.77095 3.95005 3.79084C-0.363783 8.12301 -0.36195 14.899 3.95372 19.2128L17.3957 32.6548C17.7074 33.203 18.3087 33.5568 18.9999 33.5568C19.2837 33.5541 19.5629 33.4848 19.815 33.3546C20.0672 33.2244 20.2853 33.0368 20.4519 32.807L34.0461 19.2128C38.3617 14.8972 38.3617 8.12301 34.0424 3.78351C33.0315 2.76549 31.8294 1.95732 30.5051 1.40546C29.1808 0.853602 27.7605 0.56894 26.3259 0.567841C23.6122 0.568284 20.9977 1.58767 18.9999 3.42417ZM31.4501 6.37584C34.3155 9.25601 34.3174 13.755 31.4537 16.6205L18.9999 29.0743L6.54605 16.6205C3.68238 13.755 3.68422 9.25601 6.54238 6.38317C7.93572 4.99717 9.75805 4.23451 11.6739 4.23451C13.5897 4.23451 15.4047 4.99717 16.7871 6.37951L17.7037 7.29617C17.8738 7.46657 18.0759 7.60176 18.2983 7.694C18.5207 7.78623 18.7591 7.83371 18.9999 7.83371C19.2407 7.83371 19.4791 7.78623 19.7015 7.694C19.9239 7.60176 20.1259 7.46657 20.296 7.29617L21.2127 6.37951C23.9847 3.61301 28.6817 3.62034 31.4501 6.37584Z" fill="#BABABA"/>
</svg>
