<svg width="28" height="25" viewBox="0 0 28 25" fill="none" xmlns="http://www.w3.org/2000/svg">
<path d="M13.9999 2.12668C12.5471 0.790819 10.6455 0.049409 8.67189 0.0493469C7.62728 0.0504345 6.59319 0.258093 5.62914 0.660371C4.66509 1.06265 3.79011 1.65161 3.05456 2.39335C-0.0827739 5.54401 -0.0814406 10.472 3.05723 13.6093L12.8332 23.3853C13.0599 23.784 13.4972 24.0413 13.9999 24.0413C14.2063 24.0393 14.4093 23.989 14.5927 23.8943C14.7761 23.7995 14.9348 23.6631 15.0559 23.496L24.9426 13.6093C28.0812 10.4707 28.0812 5.54401 24.9399 2.38801C24.2047 1.64764 23.3304 1.05988 22.3673 0.658524C21.4042 0.257173 20.3713 0.0501464 19.3279 0.0493469C17.3543 0.0496695 15.4528 0.791044 13.9999 2.12668ZM23.0546 4.27335C25.1386 6.36801 25.1399 9.64001 23.0572 11.724L13.9999 20.7813L4.94256 11.724C2.85989 9.64001 2.86123 6.36801 4.93989 4.27868C5.95323 3.27068 7.27856 2.71601 8.67189 2.71601C10.0652 2.71601 11.3852 3.27068 12.3906 4.27601L13.0572 4.94268C13.1809 5.06661 13.3279 5.16492 13.4896 5.23201C13.6514 5.29909 13.8248 5.33361 13.9999 5.33361C14.175 5.33361 14.3484 5.29909 14.5102 5.23201C14.6719 5.16492 14.8188 5.06661 14.9426 4.94268L15.6092 4.27601C17.6252 2.26401 21.0412 2.26935 23.0546 4.27335Z" fill="white"/>
</svg>
