<svg width="34" height="38" viewBox="0 0 34 38" fill="none" xmlns="http://www.w3.org/2000/svg">
<path d="M4.16667 37.333H29.8333C30.8058 37.333 31.7384 36.9467 32.4261 36.2591C33.1137 35.5714 33.5 34.6388 33.5 33.6663V17.1663C33.5014 16.925 33.4551 16.6859 33.3639 16.4625C33.2727 16.2391 33.1382 16.036 32.9683 15.8647L18.3017 1.19799C17.9582 0.856531 17.4935 0.664871 17.0092 0.664871C16.5248 0.664871 16.0602 0.856531 15.7167 1.19799L1.05 15.8647C0.876772 16.0345 0.73896 16.2369 0.64455 16.4604C0.550139 16.6838 0.501007 16.9238 0.5 17.1663L0.5 33.6663C0.5 34.6388 0.886308 35.5714 1.57394 36.2591C2.26157 36.9467 3.19421 37.333 4.16667 37.333ZM13.3333 33.6663V24.4997H20.6667L20.6667 33.6663H13.3333ZM4.16667 17.918L17 5.08466L29.8333 17.918L29.8333 33.6663H24.3333L24.3333 24.4997C24.3333 23.5272 23.947 22.5946 23.2594 21.9069C22.5718 21.2193 21.6391 20.833 20.6667 20.833H13.3333C12.3609 20.833 11.4282 21.2193 10.7406 21.9069C10.053 22.5946 9.66667 23.5272 9.66667 24.4997V33.6663H4.16667L4.16667 17.918Z" fill="#BABABA"/>
</svg>
