<svg width="38" height="34" viewBox="0 0 38 34" fill="none" xmlns="http://www.w3.org/2000/svg">
<path d="M33.6665 0.5L4.33317 0.5C2.311 0.5 0.666504 2.1445 0.666504 4.16667L0.666504 29.8333C0.666504 31.8555 2.311 33.5 4.33317 33.5H33.6665C35.6887 33.5 37.3332 31.8555 37.3332 29.8333V4.16667C37.3332 2.1445 35.6887 0.5 33.6665 0.5ZM33.6683 11.5C33.6665 11.5 33.6665 11.5 33.6683 11.5H32.8158L27.9263 4.16667H33.6665L33.6683 11.5ZM14.4825 11.5L9.593 4.16667L14.3523 4.16667L19.2418 11.5L14.4825 11.5ZM23.6492 11.5L18.7597 4.16667L23.519 4.16667L28.4085 11.5H23.6492ZM4.33317 4.16667H5.18567L10.0752 11.5H4.33317L4.33317 4.16667ZM4.33317 29.8333L4.33317 15.1667L33.6665 15.1667L33.6702 29.8333L4.33317 29.8333Z" fill="#BABABA"/>
<path d="M15.3332 28L25.4165 22.5L15.3332 17V28Z" fill="#BABABA"/>
</svg>
