<svg width="36" height="36" viewBox="0 0 36 36" fill="none" xmlns="http://www.w3.org/2000/svg">
<path d="M15.5187 30.1843C18.7728 30.1837 21.9332 29.0943 24.4965 27.0897L32.5559 35.149L35.1482 32.5567L27.0889 24.4973C29.0946 21.9337 30.1846 18.7726 30.1854 15.5177C30.1854 7.43083 23.6055 0.850998 15.5187 0.850998C7.43188 0.850998 0.852051 7.43083 0.852051 15.5177C0.852051 23.6045 7.43188 30.1843 15.5187 30.1843ZM15.5187 4.51766C21.5852 4.51766 26.5187 9.45117 26.5187 15.5177C26.5187 21.5842 21.5852 26.5177 15.5187 26.5177C9.45222 26.5177 4.51872 21.5842 4.51872 15.5177C4.51872 9.45117 9.45222 4.51766 15.5187 4.51766Z" fill="#BABABA"/>
</svg>
